# xmcd
#
# Track frame offsets:
#	150
#	23274
#	57755
#	103192
#	148233
#	191673
#	245346
#	278136
#
# Disc length: 4305 seconds
#
# Revision: 1
# Processed by: cddbd v1.5.2PL0 Copyright (c) Steve Scherf et al.
# Submitted via: audiograbber 1.83.01
#
DISCID=6b10cf08
DTITLE=Grateful Dead - 80-10-14 Warfield Theatre, San Francisco CA
DYEAR=1900
DGENRE=
TTITLE0=The Wheel
TTITLE1=The Music Never Stopped
TTITLE2=Scarlet Begonias
TTITLE3=Fire On The Mountain
TTITLE4=Estimated Prophet
TTITLE5=Terrapin Station
TTITLE6=Playing In The Band
TTITLE7=Drums
EXTD=
EXTT0=
EXTT1=
EXTT2=
EXTT3=
EXTT4=
EXTT5=
EXTT6=
EXTT7=
PLAYORDER=
